<svg width="128" height="128" viewBox="0 0 128 128" fill="none" xmlns="http://www.w3.org/2000/svg">
<path d="M107.5 11H20.5C15.8056 11 12 14.8056 12 19.5V106.5C12 111.194 15.8056 115 20.5 115H107.5C112.194 115 116 111.194 116 106.5V19.5C116 14.8056 112.194 11 107.5 11Z" fill="#102A4C"/>
<path d="M107 12H21C16.5817 12 13 15.5817 13 20V103C13 107.418 16.5817 111 21 111H107C111.418 111 115 107.418 115 103V20C115 15.5817 111.418 12 107 12Z" fill="#5689E7"/>
<path d="M49 60.9998H57V77.9999H49V60.9998Z" fill="white"/>
<path d="M71 52.9998H79V77.9999H71V52.9998Z" fill="white"/>
<path d="M60 43.9998H68V77.9999H60V43.9998Z" fill="white"/>
<path d="M44 42.4995C44 42.2493 43.7966 42.0003 43.5 42.0003C43.2034 42.0003 43 42.2495 43 42.4995V82.9999C43 82.9999 67.4885 83.0057 83.5 83.0003C83.7344 83.0002 84 82.8206 84 82.5003C84 82.18 83.7656 82.0002 83.5 82.0003C67.879 82.0056 44 81.9999 44 81.9999V42.4995Z" fill="white"/>
</svg>
