<svg width="16" height="16" viewBox="0 0 16 16" fill="none" xmlns="http://www.w3.org/2000/svg">
<path d="M12.5 1H4.5C3.11929 1 2 2.11929 2 3.5V12.5C2 13.8807 3.11929 15 4.5 15H12.5C13.8807 15 15 13.8807 15 12.5V3.5C15 2.11929 13.8807 1 12.5 1Z" fill="#102A4C"/>
<path d="M12 2H5C3.89543 2 3 2.89543 3 4V12C3 13.1046 3.89543 14 5 14H12C13.1046 14 14 13.1046 14 12V4C14 2.89543 13.1046 2 12 2Z" fill="#5689E7"/>
<path d="M6 8H7V10H6V8Z" fill="white"/>
<path d="M10 6H11V10H10V6Z" fill="white"/>
<path d="M8 5H9V10H8V5Z" fill="white"/>
<path d="M5 4.5C5 4.40467 5 4 4.5 4C4 4 4 4.40476 4 4.5V11.9995C4 11.9995 9.40362 12 12.5 12C12.6258 12 13 12 13 11.5C13 11 12.6265 11 12.5 11C9.47914 11 5 11 5 11V4.5Z" fill="white"/>
</svg>
