<svg width="64" height="64" viewBox="0 0 64 64" fill="none" xmlns="http://www.w3.org/2000/svg">
<path d="M53.5 6H10.5C8.01472 6 6 8.01472 6 10.5V53.5C6 55.9853 8.01472 58 10.5 58H53.5C55.9853 58 58 55.9853 58 53.5V10.5C58 8.01472 55.9853 6 53.5 6Z" fill="#102A4C"/>
<path d="M53 7H11C8.79086 7 7 8.79086 7 11V51C7 53.2091 8.79086 55 11 55H53C55.2091 55 57 53.2091 57 51V11C57 8.79086 55.2091 7 53 7Z" fill="#5689E7"/>
<path d="M25.0453 34H29V42H25.0453V34Z" fill="white"/>
<path d="M37 29H41V42H37V29Z" fill="white"/>
<path d="M31 25H35V42H31V25Z" fill="white"/>
<path d="M23 24.5005C23 24.2502 22.7969 24 22.5 24C22.2031 24 22 24.25 22 24.5V44.999C22 44.999 34.3733 45.0002 42.5 45.0002C43.1602 45.0002 43.1641 44.0002 42.5 44.0002C34.5715 44.0002 23 44.0002 23 44.0002V24.5005Z" fill="white"/>
</svg>
