<svg width="32" height="32" viewBox="0 0 32 32" fill="none" xmlns="http://www.w3.org/2000/svg">
<path d="M26.5 3H5.5C4.11929 3 3 4.11929 3 5.5V26.5C3 27.8807 4.11929 29 5.5 29H26.5C27.8807 29 29 27.8807 29 26.5V5.5C29 4.11929 27.8807 3 26.5 3Z" fill="#102A4C"/>
<path d="M26 4H6C4.89543 4 4 4.89543 4 6V25C4 26.1046 4.89543 27 6 27H26C27.1046 27 28 26.1046 28 25V6C28 4.89543 27.1046 4 26 4Z" fill="#5689E7"/>
<path d="M11 16H14V21L11.0305 20.9999L11 16Z" fill="white"/>
<path d="M19 13H22V20.9999H19.0016L19 13Z" fill="white"/>
<path d="M15.001 10H18V21L15.001 20.9999V10Z" fill="white"/>
<path d="M10 9.33333C10 9.16651 9.69795 9 9.5 9C9.30205 9 9 9.16666 9 9.33333V22.9992C9 22.9992 17.2502 23 22.6689 23C23.1091 23 23.1117 22 22.6689 22C17.3824 22 10 22 10 22V9.33333Z" fill="white"/>
</svg>
