<svg width="24" height="24" viewBox="0 0 24 24" fill="none" xmlns="http://www.w3.org/2000/svg">
<path d="M20.5 1H3.5C2.11929 1 1 2.11929 1 3.5V20.5C1 21.8807 2.11929 23 3.5 23H20.5C21.8807 23 23 21.8807 23 20.5V3.5C23 2.11929 21.8807 1 20.5 1Z" fill="#102A4C"/>
<path d="M20 2H4C2.89543 2 2 2.89543 2 4V20C2 21.1046 2.89543 22 4 22H20C21.1046 22 22 21.1046 22 20V4C22 2.89543 21.1046 2 20 2Z" fill="#5689E7"/>
<path d="M7 12H10V17L7.03054 16.9999L7 12Z" fill="white"/>
<path d="M15 9H18V16.9999H15.0016L15 9Z" fill="white"/>
<path d="M11.001 6H14V17L11.001 16.9999V6Z" fill="white"/>
<path d="M6 5.33333C6 5.16651 5.69795 5 5.5 5C5.30205 5 5 5.16666 5 5.33333V18.9992C5 18.9992 13.2502 19 18.6689 19C19.1091 19 19.1117 18 18.6689 18C13.3824 18 6 18 6 18V5.33333Z" fill="white"/>
</svg>
