<svg width="48" height="48" viewBox="0 0 48 48" fill="none" xmlns="http://www.w3.org/2000/svg">
<path d="M40.5 4H7.5C5.567 4 4 5.567 4 7.5V39.5C4 41.433 5.567 43 7.5 43H40.5C42.433 43 44 41.433 44 39.5V7.5C44 5.567 42.433 4 40.5 4Z" fill="#102A4C"/>
<path d="M40 5H8C6.34315 5 5 6.34315 5 8V37C5 38.6569 6.34315 40 8 40H40C41.6569 40 43 38.6569 43 37V8C43 6.34315 41.6569 5 40 5Z" fill="#5689E7"/>
<path d="M17.0453 22H21V30H17.0453V22Z" fill="white"/>
<path d="M29 17H33V30H29V17Z" fill="white"/>
<path d="M23 13H27V30H23V13Z" fill="white"/>
<path d="M15 12.5005C15 12.2502 14.7969 12 14.5 12C14.2031 12 14 12.25 14 12.5V32.999C14 32.999 26.3733 33.0002 34.5 33.0002C35.1602 33.0002 35.1641 32.0002 34.5 32.0002C26.5715 32.0002 15 32.0002 15 32.0002V12.5005Z" fill="white"/>
</svg>
