<svg width="256" height="256" viewBox="0 0 256 256" fill="none" xmlns="http://www.w3.org/2000/svg">
<path d="M215.5 23H40.5C31.3873 23 24 30.3873 24 39.5V214.5C24 223.613 31.3873 231 40.5 231H215.5C224.613 231 232 223.613 232 214.5V39.5C232 30.3873 224.613 23 215.5 23Z" fill="#102A4C"/>
<path d="M215 24H41C32.1634 24 25 31.1634 25 40V210C25 218.837 32.1634 226 41 226H215C223.837 226 231 218.837 231 210V40C231 31.1634 223.837 24 215 24Z" fill="#5689E7"/>
<path d="M96.0017 123H114.005V158H96.0017V123Z" fill="white"/>
<path d="M144.01 105H162.013V158H144.01V105Z" fill="white"/>
<path d="M120.006 87H138.009V158H120.006V87Z" fill="white"/>
<path d="M88.0003 83.0001C88.0002 82.4999 87.644 81.9998 87 81.9998C86.315 81.9998 86 82.4999 86 83.0001V167C86 167 137.205 167.003 170.014 167C171.298 167 171.359 165 170.014 165C137.986 165.003 88.0003 165 88.0003 165V83.0001Z" fill="white"/>
</svg>
